<svg width="20" height="21" viewBox="0 0 20 21" fill="none" xmlns="http://www.w3.org/2000/svg">
<mask id="mask0" mask-type="alpha" maskUnits="userSpaceOnUse" x="0" y="4" width="20" height="17">
<path fill-rule="evenodd" clip-rule="evenodd" d="M0 4.7642H20V20.764H0V4.7642Z" fill="white"/>
</mask>
<g mask="url(#mask0)">
<path fill-rule="evenodd" clip-rule="evenodd" d="M3 4.7642H17C18.657 4.7642 20 6.1072 20 7.7642V17.7642C20 19.4202 18.657 20.7642 17 20.7642H3C1.343 20.7642 0 19.4202 0 17.7642V7.7642C0 6.1072 1.343 4.7642 3 4.7642V4.7642ZM3 6.7642C2.448 6.7642 2 7.2122 2 7.7642V17.7642C2 18.3162 2.448 18.7642 3 18.7642H17C17.553 18.7642 18 18.3162 18 17.7642V7.7642C18 7.2122 17.553 6.7642 17 6.7642H3Z" fill="white"/>
</g>
<mask id="mask1" mask-type="alpha" maskUnits="userSpaceOnUse" x="5" y="0" width="10" height="5">
<path fill-rule="evenodd" clip-rule="evenodd" d="M5.479 0H14.521V4.7639H5.479V0Z" fill="white"/>
</mask>
<g mask="url(#mask1)">
<path fill-rule="evenodd" clip-rule="evenodd" d="M10 2.0279C11.434 2.0279 12.596 3.2529 12.596 4.7639H14.521C14.521 2.1329 12.496 -9.91821e-05 10 -9.91821e-05C7.503 -9.91821e-05 5.479 2.1329 5.479 4.7639H7.404C7.404 3.2529 8.566 2.0279 10 2.0279" fill="white"/>
</g>
<path fill-rule="evenodd" clip-rule="evenodd" d="M14.3955 16.9527H5.6045C4.7375 16.9527 4.0345 16.2497 4.0345 15.3827V10.3817C4.0345 9.5137 4.7375 8.8107 5.6045 8.8107H14.3955C15.2625 8.8107 15.9655 9.5137 15.9655 10.3817V15.3827C15.9655 16.2497 15.2625 16.9527 14.3955 16.9527" fill="#FFBD00"/>
</svg>
